<svg width="1822" height="1024" viewBox="0 0 1822 1024" fill="none" xmlns="http://www.w3.org/2000/svg">
<g clip-path="url(#clip0_2_2)">
<path d="M1106.68 375.456C1113.26 394.487 1116.82 414.9 1116.82 436.136C1116.82 497.964 1086.57 552.863 1040.08 586.811C1037.89 588.416 1035.65 589.969 1033.37 591.475C1013.72 604.561 991.46 614.011 967.543 618.867C965.328 619.316 963.081 619.731 960.836 620.097C950.92 621.733 940.748 622.585 930.375 622.585C918.343 622.585 906.579 621.437 895.177 619.255C892.923 618.816 890.687 618.348 888.461 617.831C864.776 612.375 842.809 602.387 823.513 588.843C821.237 587.248 819.003 585.601 816.808 583.915C797.421 568.979 781.041 550.333 768.757 529.027L758.008 536.808C792.696 595.976 856.973 635.795 930.375 635.795C1040.47 635.795 1130.03 546.228 1130.03 436.136C1130.03 411.455 1125.53 387.812 1117.31 365.976L1106.68 375.456Z" fill="url(#paint0_linear_2_2)"/>
<path d="M730.711 436.12C730.711 468.191 738.309 498.484 751.779 525.324C752.369 526.559 753.012 527.792 753.653 529.025C753.851 529.419 754.048 529.815 754.245 530.16C754.64 530.851 754.987 531.541 755.38 532.183C755.577 532.579 755.776 532.923 755.972 533.268L766.777 525.473C766.58 525.079 766.383 524.733 766.185 524.337C765.692 523.499 765.248 522.611 764.804 521.772C764.607 521.427 764.409 521.032 764.213 520.687C763.571 519.453 762.977 518.171 762.387 516.937C750.545 492.465 743.935 465.081 743.935 436.12C743.935 376.025 772.501 322.492 816.808 288.349C817.203 288.053 817.597 287.709 818.041 287.412C819.423 286.377 820.853 285.34 822.284 284.304C822.679 284.008 823.121 283.712 823.517 283.416C842.808 269.897 864.764 259.881 888.448 254.453C888.843 254.355 889.287 254.256 889.681 254.159C891.112 253.861 892.493 253.565 893.924 253.271C894.319 253.172 894.763 253.121 895.157 253.023C906.556 250.852 918.347 249.668 930.385 249.668C940.747 249.668 950.909 250.556 960.828 252.184C961.223 252.233 961.667 252.332 962.061 252.381C963.492 252.628 964.924 252.875 966.305 253.172C966.7 253.271 967.144 253.319 967.537 253.417C991.468 258.252 1013.72 267.727 1033.36 280.8C1033.75 281.048 1034.19 281.343 1034.59 281.639C1036.02 282.576 1037.45 283.564 1038.83 284.551C1039.28 284.847 1039.67 285.143 1040.07 285.439C1061.28 300.981 1079.14 320.815 1092.27 343.708C1092.96 344.892 1093.65 346.127 1094.29 347.359C1094.49 347.755 1094.68 348.099 1094.88 348.493C1098.63 355.449 1101.94 362.655 1104.7 370.104C1104.9 370.499 1105.05 370.943 1105.19 371.339L1115.75 361.964C1115.6 361.569 1115.41 361.125 1115.21 360.731C1112.15 353.231 1108.65 345.979 1104.75 338.972C1104.55 338.577 1104.31 338.231 1104.11 337.836C1103.42 336.603 1102.73 335.419 1101.99 334.235C1067.15 275.719 1003.26 236.495 930.385 236.495C820.261 236.495 730.711 326.044 730.711 436.12Z" fill="url(#paint1_linear_2_2)"/>
<path d="M823.513 489.337L816.808 494.205L799.157 506.987V529.341H841.163V476.556L823.513 489.337Z" fill="url(#paint2_linear_2_2)"/>
<path d="M799.157 402.251V501.979L816.808 489.185L817.428 488.739L841.163 471.537V402.251H799.157Z" fill="url(#paint3_linear_2_2)"/>
<path d="M822.284 302.065C820.853 303.201 819.423 304.385 818.041 305.569C817.647 305.963 817.203 306.309 816.808 306.655V419.541H823.517V301.079C823.121 301.376 822.679 301.72 822.284 302.065Z" fill="url(#paint4_linear_2_2)"/>
<mask id="mask0_2_2" style="mask-type:luminance" maskUnits="userSpaceOnUse" x="0" y="0" width="1822" height="1024">
<path d="M0 -3.05176e-05H1821.33V1024H0V-3.05176e-05Z" fill="white"/>
</mask>
<g mask="url(#mask0_2_2)">
<path d="M817.428 488.738L816.808 489.185V488.738H817.428Z" fill="black"/>
</g>
<path d="M816.808 494.192V565.388C817.203 565.733 817.647 566.128 818.041 566.473C819.423 567.657 820.853 568.841 822.284 570.025C822.679 570.371 823.121 570.716 823.517 571.013V489.357L816.808 494.192Z" fill="url(#paint5_linear_2_2)"/>
<path d="M1015.73 372.072V451.113L1057.73 413.661V372.072H1015.73Z" fill="url(#paint6_linear_2_2)"/>
<path d="M1015.73 456.539V499.153H1057.73V419.097L1015.73 456.539Z" fill="url(#paint7_linear_2_2)"/>
<path d="M1033.36 481.857V574.615C1033.75 574.317 1034.19 574.021 1034.59 573.677C1036.02 572.591 1037.45 571.505 1038.83 570.371C1039.23 570.076 1039.67 569.729 1040.07 569.384V481.857H1033.36Z" fill="url(#paint8_linear_2_2)"/>
<path d="M1033.36 412.684H1040.07V302.708C1039.67 302.363 1039.23 302.016 1038.83 301.72C1037.45 300.587 1036.02 299.451 1034.59 298.365C1034.19 298.069 1033.75 297.773 1033.36 297.428V412.684Z" fill="url(#paint9_linear_2_2)"/>
<path d="M870.812 367.307V450.057L901.497 427.824L912.827 441.705V367.307H870.812Z" fill="url(#paint10_linear_2_2)"/>
<path d="M870.812 455.065V494.388H912.827V448.136L900.767 433.363L870.812 455.065Z" fill="url(#paint11_linear_2_2)"/>
<path d="M893.924 267.577C892.493 267.875 891.063 268.22 889.681 268.564C889.237 268.664 888.843 268.763 888.448 268.86V384.609H895.157V267.332C894.713 267.381 894.319 267.479 893.924 267.577Z" fill="url(#paint12_linear_2_2)"/>
<path d="M888.448 453.783V603.183C888.843 603.28 889.237 603.379 889.681 603.479C891.063 603.823 892.493 604.168 893.924 604.464C894.319 604.563 894.713 604.661 895.157 604.711V453.783H888.448Z" fill="url(#paint13_linear_2_2)"/>
<path d="M943.188 422.379V478.904L955.188 493.605L960.603 500.251L967.279 494.307L985.192 478.333V422.379H943.188Z" fill="url(#paint14_linear_2_2)"/>
<path d="M960.136 506.104L943.188 485.335V549.46H985.192V483.76L960.136 506.104Z" fill="url(#paint15_linear_2_2)"/>
<path d="M960.828 532.183V605.796C961.223 605.747 961.617 605.649 962.061 605.549C963.492 605.303 964.924 605.056 966.305 604.761C966.749 604.661 967.144 604.563 967.537 604.464V532.183H960.828Z" fill="url(#paint16_linear_2_2)"/>
<path d="M959.965 508.237L944.667 489.489V547.98H962.307V604.005C963.549 603.789 964.793 603.569 965.992 603.313L966.06 603.297V547.98H983.713V487.064L959.965 508.237Z" fill="url(#paint17_linear_2_2)"/>
<path d="M960.828 462.96H967.537V267.577C967.144 267.479 966.749 267.381 966.305 267.283C964.924 266.987 963.492 266.739 962.061 266.493C961.617 266.395 961.223 266.295 960.828 266.245V462.96Z" fill="url(#paint18_linear_2_2)"/>
<path d="M1143.19 299.796L1104.11 337.836L1103.17 338.724L1095.23 346.471L1094.29 347.359L1084.13 357.225L1057.73 382.932L1056.5 384.117L1040.07 400.103L1033.36 406.616L1016.97 422.601L1015.74 423.785L985.201 453.487L983.968 454.671L962.011 476.036L944.399 456.348L943.164 454.967L912.821 420.875L911.587 419.493L907.492 414.904L903.397 410.315L898.759 413.967L872.068 435.132L870.833 436.12L841.181 459.655L839.947 460.641L800.377 491.972L799.144 492.959L775.757 511.511L764.213 520.687L763.225 521.476L754.64 528.236L753.653 529.025L667.261 597.557L755.972 533.268L766.777 525.473L778.52 516.937L799.144 501.988L816.808 489.208L817.448 488.716L841.181 471.545L870.833 450.033L901.473 427.831L912.821 441.695L943.164 478.896L955.204 493.6L960.581 500.26L967.291 494.289L985.201 478.355L1015.74 451.119L1057.73 413.671L1094.19 381.107L1105.19 371.339L1115.75 361.964L1162.03 320.667L1168.4 314.993L1149.01 294.172L1143.19 299.796Z" fill="url(#paint19_linear_2_2)"/>
<path d="M1127.86 284.608L1174.51 336.417L1193.51 274.705L1127.86 284.608Z" fill="url(#paint20_linear_2_2)"/>
<path d="M493.361 673.516L457.805 716.728L422.249 673.516C421.001 671.929 419.188 671.135 416.805 671.135C414.876 671.135 413.289 671.845 412.043 673.26C410.792 674.681 410.171 676.296 410.171 678.109C410.171 679.471 410.683 680.945 411.701 682.533L449.299 726.935L409.151 774.74C408.016 776.215 407.449 777.632 407.449 778.992C407.449 780.921 408.101 782.565 409.405 783.925C410.708 785.287 412.383 785.968 414.424 785.968C416.805 785.968 418.564 785.231 419.697 783.755L457.805 737.483L495.913 783.755C497.045 785.231 498.805 785.968 501.187 785.968C503.228 785.968 504.9 785.287 506.205 783.925C507.508 782.565 508.161 780.921 508.161 778.992C508.161 777.632 507.593 776.215 506.461 774.74L466.312 726.935L503.909 682.364C504.929 681.116 505.44 679.7 505.44 678.109C505.44 676.296 504.787 674.681 503.484 673.26C502.179 671.845 500.563 671.135 498.635 671.135C496.365 671.135 494.608 671.929 493.361 673.516Z" fill="url(#paint21_linear_2_2)"/>
<path d="M605.981 675.897L569.236 769.807L532.489 675.897C531.579 672.724 529.256 671.135 525.513 671.135C523.357 671.135 521.571 671.872 520.155 673.345C518.735 674.821 518.028 676.579 518.028 678.62C518.028 679.641 518.253 680.551 518.708 681.343L557.667 778.141C559.819 783.359 563.676 785.968 569.236 785.968C574.904 785.968 578.761 783.359 580.804 778.141L619.761 681.343C620.213 680.321 620.441 679.415 620.441 678.62C620.441 676.579 619.703 674.821 618.231 673.345C616.755 671.872 614.997 671.135 612.956 671.135C609.665 671.135 607.343 672.724 605.981 675.897Z" fill="url(#paint22_linear_2_2)"/>
<path d="M640.515 673.175C639.153 674.536 638.473 676.183 638.473 678.109V778.992C638.473 780.921 639.153 782.565 640.515 783.925C641.875 785.287 643.576 785.968 645.619 785.968C647.545 785.968 649.191 785.26 650.552 783.841C651.913 782.424 652.593 780.807 652.593 778.992V678.109C652.593 676.183 651.913 674.536 650.552 673.175C649.191 671.816 647.545 671.135 645.619 671.135C643.576 671.135 641.875 671.816 640.515 673.175Z" fill="url(#paint23_linear_2_2)"/>
<path d="M720.812 671.816C719.111 671.816 717.635 672.439 716.389 673.688C715.139 674.937 714.517 676.409 714.517 678.109C714.517 679.811 715.139 681.285 716.389 682.533C717.635 683.783 719.111 684.404 720.812 684.404H751.093V778.992C751.093 780.921 751.801 782.565 753.221 783.925C754.637 785.287 756.309 785.968 758.239 785.968C760.167 785.968 761.812 785.287 763.172 783.925C764.533 782.565 765.213 780.921 765.213 778.992V684.404H795.667C797.368 684.404 798.84 683.783 800.089 682.533C801.336 681.285 801.96 679.811 801.96 678.109C801.96 676.409 801.336 674.937 800.089 673.688C798.84 672.439 797.368 671.816 795.667 671.816H720.812Z" fill="url(#paint24_linear_2_2)"/>
<path d="M827.477 671.816C822.487 671.816 819.991 674.312 819.991 679.301V778.992C819.991 780.921 820.673 782.565 822.033 783.925C823.395 785.287 825.096 785.968 827.137 785.968C829.064 785.968 830.711 785.26 832.071 783.841C833.431 782.424 834.112 780.807 834.112 778.992V740.205H859.121L888.721 783.076C890.083 785.005 892.065 785.968 894.677 785.968C896.604 785.968 898.219 785.315 899.525 784.011C900.827 782.711 901.481 781.204 901.481 779.503C901.481 778.031 901.027 776.555 900.12 775.079L874.091 738.673C882.029 737.543 888.523 734.053 893.571 728.211C898.616 722.372 901.141 714.971 901.141 706.011C901.141 695.692 897.849 687.409 891.273 681.172C884.695 674.937 876.133 671.816 865.585 671.816H827.477ZM834.112 684.404H863.884C870.573 684.404 876.017 686.419 880.216 690.443C884.411 694.471 886.511 699.659 886.511 706.011C886.511 712.363 884.411 717.577 880.216 721.661C876.017 725.744 870.573 727.787 863.884 727.787H834.112V684.404Z" fill="url(#paint25_linear_2_2)"/>
<path d="M954.557 678.959L915.428 775.931C914.973 777.179 914.749 778.141 914.749 778.823C914.749 780.753 915.456 782.424 916.875 783.841C918.292 785.26 920.021 785.968 922.063 785.968C925.577 785.968 927.789 784.437 928.697 781.373L936.864 760.109H995.216L1003.38 781.373C1004.74 784.437 1007.01 785.968 1010.19 785.968C1012.11 785.968 1013.79 785.26 1015.21 783.841C1016.62 782.424 1017.33 780.695 1017.33 778.653C1017.33 778.54 1017.16 777.632 1016.82 775.931L977.524 678.959C975.481 673.745 971.681 671.135 966.125 671.135C960.453 671.135 956.599 673.745 954.557 678.959ZM966.125 684.404L990.453 747.52H941.799L966.125 684.404Z" fill="url(#paint26_linear_2_2)"/>
<path d="M1074.15 671.816H1042.85C1037.86 671.816 1035.36 674.312 1035.36 679.301V777.801C1035.36 782.795 1037.86 785.287 1042.85 785.287H1074.15C1091.16 785.399 1105.17 780.013 1116.17 769.125C1127.17 758.237 1132.56 744.743 1132.33 728.636C1132.56 712.533 1127.17 698.979 1116.17 687.976C1105.39 677.199 1091.73 671.809 1075.17 671.809C1074.83 671.809 1074.49 671.811 1074.15 671.816ZM1049.48 684.404H1074.15C1087.53 684.404 1098.14 688.572 1105.96 696.909C1113.79 705.244 1117.7 715.823 1117.7 728.636C1117.7 741.225 1113.73 751.717 1105.79 760.109C1097.85 768.503 1087.31 772.699 1074.15 772.699H1049.48V684.404Z" fill="url(#paint27_linear_2_2)"/>
<path d="M1156.49 673.175C1155.13 674.536 1154.45 676.183 1154.45 678.109V778.992C1154.45 780.921 1155.13 782.565 1156.49 783.925C1157.85 785.287 1159.55 785.968 1161.59 785.968C1163.52 785.968 1165.17 785.26 1166.53 783.841C1167.89 782.424 1168.57 780.807 1168.57 778.992V678.109C1168.57 676.183 1167.89 674.536 1166.53 673.175C1165.17 671.816 1163.52 671.135 1161.59 671.135C1159.55 671.135 1157.85 671.816 1156.49 673.175Z" fill="url(#paint28_linear_2_2)"/>
<path d="M1277.02 673.175C1275.6 674.536 1274.9 676.183 1274.9 678.109V761.471L1211.78 674.879C1209.97 672.384 1207.47 671.135 1204.29 671.135C1201.8 671.135 1199.64 672.045 1197.83 673.857C1196.01 675.672 1195.11 677.827 1195.11 680.321V778.992C1195.11 780.921 1195.79 782.565 1197.15 783.925C1198.51 785.287 1200.21 785.968 1202.25 785.968C1204.18 785.968 1205.83 785.26 1207.19 783.841C1208.55 782.424 1209.23 780.807 1209.23 778.992V693.76L1273.19 782.395C1274.9 784.776 1277.28 785.968 1280.34 785.968C1282.72 785.968 1284.76 785.116 1286.46 783.416C1288.17 781.715 1289.02 779.673 1289.02 777.292V678.109C1289.02 676.183 1288.34 674.536 1286.97 673.175C1285.61 671.816 1283.91 671.135 1281.87 671.135C1280.05 671.135 1278.44 671.816 1277.02 673.175Z" fill="url(#paint29_linear_2_2)"/>
<path d="M1327.72 686.445C1316.32 697.673 1310.73 711.739 1310.96 728.636C1310.73 745.648 1316.32 759.769 1327.72 770.999C1339.12 782.225 1352.98 787.725 1369.31 787.499C1385.08 787.499 1398.69 782.225 1410.14 771.677C1412.63 769.295 1413.88 766.179 1413.88 762.321V734.591C1413.88 729.487 1411.39 726.935 1406.4 726.935H1366.42C1364.72 726.935 1363.24 727.56 1362 728.807C1360.75 730.056 1360.12 731.529 1360.12 733.229C1360.12 734.929 1360.75 736.404 1362 737.653C1363.24 738.903 1364.72 739.523 1366.42 739.523H1399.76V762.66C1396.25 766.179 1391.77 769.099 1386.33 771.421C1380.88 773.748 1375.21 774.911 1369.31 774.911C1357.06 775.139 1346.66 770.743 1338.09 761.725C1329.53 752.709 1325.36 741.68 1325.59 728.636C1325.36 715.48 1329.53 704.452 1338.09 695.547C1346.66 686.644 1357.06 682.307 1369.31 682.533C1380.99 682.533 1390.92 686.616 1399.09 694.781C1400.33 696.032 1401.92 696.652 1403.85 696.652C1405.66 696.652 1407.19 696.032 1408.44 694.781C1409.69 693.535 1410.31 692.004 1410.31 690.189C1410.31 688.147 1409.69 686.616 1408.44 685.595C1398.01 675.161 1384.96 669.944 1369.31 669.944C1368.99 669.939 1368.67 669.937 1368.35 669.937C1352.44 669.937 1338.89 675.439 1327.72 686.445Z" fill="url(#paint30_linear_2_2)"/>
</g>
<defs>
<linearGradient id="paint0_linear_2_2" x1="944.02" y1="426.585" x2="944.02" y2="645.892" gradientUnits="userSpaceOnUse">
<stop/>
<stop offset="0.227907"/>
<stop offset="0.413953"/>
<stop offset="0.586047"/>
<stop offset="0.772093"/>
<stop offset="1"/>
</linearGradient>
<linearGradient id="paint1_linear_2_2" x1="923.232" y1="215.575" x2="923.232" y2="485.335" gradientUnits="userSpaceOnUse">
<stop/>
<stop offset="0.319846"/>
<stop offset="0.680154"/>
<stop offset="1"/>
</linearGradient>
<linearGradient id="paint2_linear_2_2" x1="820.161" y1="426.585" x2="820.161" y2="645.892" gradientUnits="userSpaceOnUse">
<stop/>
<stop offset="0.227907"/>
<stop offset="0.413953"/>
<stop offset="0.586047"/>
<stop offset="0.772093"/>
<stop offset="1"/>
</linearGradient>
<linearGradient id="paint3_linear_2_2" x1="820.161" y1="215.556" x2="820.161" y2="485.336" gradientUnits="userSpaceOnUse">
<stop/>
<stop offset="0.319846"/>
<stop offset="0.680154"/>
<stop offset="1"/>
</linearGradient>
<linearGradient id="paint4_linear_2_2" x1="820.162" y1="249.382" x2="820.162" y2="474.415" gradientUnits="userSpaceOnUse">
<stop/>
<stop offset="0.319846"/>
<stop offset="0.680154"/>
<stop offset="1"/>
</linearGradient>
<linearGradient id="paint5_linear_2_2" x1="820.162" y1="440.002" x2="820.162" y2="612.485" gradientUnits="userSpaceOnUse">
<stop/>
<stop offset="0.227907"/>
<stop offset="0.413953"/>
<stop offset="0.586047"/>
<stop offset="0.772093"/>
<stop offset="1"/>
</linearGradient>
<linearGradient id="paint6_linear_2_2" x1="1036.73" y1="215.556" x2="1036.73" y2="485.336" gradientUnits="userSpaceOnUse">
<stop/>
<stop offset="0.319846"/>
<stop offset="0.680154"/>
<stop offset="1"/>
</linearGradient>
<linearGradient id="paint7_linear_2_2" x1="1036.73" y1="426.585" x2="1036.73" y2="645.891" gradientUnits="userSpaceOnUse">
<stop/>
<stop offset="0.227907"/>
<stop offset="0.413953"/>
<stop offset="0.586047"/>
<stop offset="0.772093"/>
<stop offset="1"/>
</linearGradient>
<linearGradient id="paint8_linear_2_2" x1="1036.71" y1="437.02" x2="1036.71" y2="614.916" gradientUnits="userSpaceOnUse">
<stop/>
<stop offset="0.227907"/>
<stop offset="0.413953"/>
<stop offset="0.586047"/>
<stop offset="0.772093"/>
<stop offset="1"/>
</linearGradient>
<linearGradient id="paint9_linear_2_2" x1="1036.71" y1="249.477" x2="1036.71" y2="472.853" gradientUnits="userSpaceOnUse">
<stop/>
<stop offset="0.319846"/>
<stop offset="0.680154"/>
<stop offset="1"/>
</linearGradient>
<linearGradient id="paint10_linear_2_2" x1="891.819" y1="215.556" x2="891.819" y2="485.336" gradientUnits="userSpaceOnUse">
<stop/>
<stop offset="0.319846"/>
<stop offset="0.680154"/>
<stop offset="1"/>
</linearGradient>
<linearGradient id="paint11_linear_2_2" x1="891.819" y1="426.585" x2="891.819" y2="645.891" gradientUnits="userSpaceOnUse">
<stop/>
<stop offset="0.227907"/>
<stop offset="0.413953"/>
<stop offset="0.586047"/>
<stop offset="0.772093"/>
<stop offset="1"/>
</linearGradient>
<linearGradient id="paint12_linear_2_2" x1="891.803" y1="236.09" x2="891.803" y2="473.111" gradientUnits="userSpaceOnUse">
<stop/>
<stop offset="0.319846"/>
<stop offset="0.680154"/>
<stop offset="1"/>
</linearGradient>
<linearGradient id="paint13_linear_2_2" x1="891.803" y1="429.165" x2="891.803" y2="627.597" gradientUnits="userSpaceOnUse">
<stop/>
<stop offset="0.227907"/>
<stop offset="0.413953"/>
<stop offset="0.586047"/>
<stop offset="0.772093"/>
<stop offset="1"/>
</linearGradient>
<linearGradient id="paint14_linear_2_2" x1="964.189" y1="215.556" x2="964.189" y2="485.336" gradientUnits="userSpaceOnUse">
<stop/>
<stop offset="0.319846"/>
<stop offset="0.680154"/>
<stop offset="1"/>
</linearGradient>
<linearGradient id="paint15_linear_2_2" x1="964.189" y1="426.585" x2="964.189" y2="645.892" gradientUnits="userSpaceOnUse">
<stop/>
<stop offset="0.227907"/>
<stop offset="0.413953"/>
<stop offset="0.586047"/>
<stop offset="0.772093"/>
<stop offset="1"/>
</linearGradient>
<linearGradient id="paint16_linear_2_2" x1="964.183" y1="450.835" x2="964.183" y2="619.807" gradientUnits="userSpaceOnUse">
<stop/>
<stop offset="0.227907"/>
<stop offset="0.413953"/>
<stop offset="0.586047"/>
<stop offset="0.772093"/>
<stop offset="1"/>
</linearGradient>
<linearGradient id="paint17_linear_2_2" x1="964.19" y1="656.928" x2="964.19" y2="428.967" gradientUnits="userSpaceOnUse">
<stop/>
<stop offset="0.227907"/>
<stop offset="0.413953"/>
<stop offset="0.586047"/>
<stop offset="0.772093"/>
<stop offset="1"/>
</linearGradient>
<linearGradient id="paint18_linear_2_2" x1="964.183" y1="240.69" x2="964.183" y2="483.052" gradientUnits="userSpaceOnUse">
<stop/>
<stop offset="0.319846"/>
<stop offset="0.680154"/>
<stop offset="1"/>
</linearGradient>
<linearGradient id="paint19_linear_2_2" x1="917.829" y1="215.536" x2="917.829" y2="485.321" gradientUnits="userSpaceOnUse">
<stop/>
<stop offset="0.319846"/>
<stop offset="0.680154"/>
<stop offset="1"/>
</linearGradient>
<linearGradient id="paint20_linear_2_2" x1="1160.68" y1="215.556" x2="1160.68" y2="485.336" gradientUnits="userSpaceOnUse">
<stop/>
<stop offset="0.319846"/>
<stop offset="0.680154"/>
<stop offset="1"/>
</linearGradient>
<linearGradient id="paint21_linear_2_2" x1="394.099" y1="766.09" x2="526.073" y2="689.894" gradientUnits="userSpaceOnUse">
<stop/>
<stop offset="0.227907"/>
<stop offset="0.413953"/>
<stop offset="0.586047"/>
<stop offset="0.772093"/>
<stop offset="1"/>
</linearGradient>
<linearGradient id="paint22_linear_2_2" x1="530.962" y1="738.515" x2="632.214" y2="680.057" gradientUnits="userSpaceOnUse">
<stop/>
<stop offset="0.227907"/>
<stop offset="0.413953"/>
<stop offset="0.586047"/>
<stop offset="0.772093"/>
<stop offset="1"/>
</linearGradient>
<linearGradient id="paint23_linear_2_2" x1="615.885" y1="745.657" x2="677.993" y2="709.798" gradientUnits="userSpaceOnUse">
<stop/>
<stop offset="0.227907"/>
<stop offset="0.413953"/>
<stop offset="0.586047"/>
<stop offset="0.772093"/>
<stop offset="1"/>
</linearGradient>
<linearGradient id="paint24_linear_2_2" x1="720.482" y1="739.957" x2="803.095" y2="692.261" gradientUnits="userSpaceOnUse">
<stop/>
<stop offset="0.319846"/>
<stop offset="0.680154"/>
<stop offset="1"/>
</linearGradient>
<linearGradient id="paint25_linear_2_2" x1="801.477" y1="763.068" x2="898.37" y2="707.127" gradientUnits="userSpaceOnUse">
<stop/>
<stop offset="0.319846"/>
<stop offset="0.680154"/>
<stop offset="1"/>
</linearGradient>
<linearGradient id="paint26_linear_2_2" x1="905.094" y1="775.951" x2="995.049" y2="724.015" gradientUnits="userSpaceOnUse">
<stop/>
<stop offset="0.319846"/>
<stop offset="0.680154"/>
<stop offset="1"/>
</linearGradient>
<linearGradient id="paint27_linear_2_2" x1="1014.02" y1="758.558" x2="1116.11" y2="699.612" gradientUnits="userSpaceOnUse">
<stop/>
<stop offset="0.319846"/>
<stop offset="0.680154"/>
<stop offset="1"/>
</linearGradient>
<linearGradient id="paint28_linear_2_2" x1="1130.37" y1="746.519" x2="1185.47" y2="714.706" gradientUnits="userSpaceOnUse">
<stop/>
<stop offset="0.319846"/>
<stop offset="0.680154"/>
<stop offset="1"/>
</linearGradient>
<linearGradient id="paint29_linear_2_2" x1="1177.66" y1="765.854" x2="1291.72" y2="700.001" gradientUnits="userSpaceOnUse">
<stop/>
<stop offset="0.319846"/>
<stop offset="0.680154"/>
<stop offset="1"/>
</linearGradient>
<linearGradient id="paint30_linear_2_2" x1="1313.43" y1="760.86" x2="1409.29" y2="705.52" gradientUnits="userSpaceOnUse">
<stop/>
<stop offset="0.319846"/>
<stop offset="0.680154"/>
<stop offset="1"/>
</linearGradient>
<clipPath id="clip0_2_2">
<rect width="1821.33" height="1024" fill="white"/>
</clipPath>
</defs>
</svg>
