<?xml version="1.0" encoding="UTF-8"?>
<!-- Created with Inkscape (http://www.inkscape.org/) -->
<svg width="1821.3" height="1024" version="1.1" viewBox="0 0 1821.3 1024" xmlns="http://www.w3.org/2000/svg" xmlns:xlink="http://www.w3.org/1999/xlink">
 <defs>
  <linearGradient id="linearGradient7" x2="1" gradientTransform="matrix(0 -164.48 -164.48 0 708.02 448.06)" gradientUnits="userSpaceOnUse">
   <stop style="stop-color:#9e9e9e icc-color(sRGB-IEC61966-2.1, 0.61959839, 0.61959839, 0.61959839)" offset="0"/>
   <stop style="stop-color:#989898 icc-color(sRGB-IEC61966-2.1, 0.59606934, 0.59606934, 0.59606934)" offset=".22791"/>
   <stop style="stop-color:#e4e4e4 icc-color(sRGB-IEC61966-2.1, 0.894104, 0.894104, 0.894104)" offset=".41395"/>
   <stop style="stop-color:#c6c6c6 icc-color(sRGB-IEC61966-2.1, 0.77645874, 0.77645874, 0.77645874)" offset=".58605"/>
   <stop style="stop-color:#ffffff icc-color(sRGB-IEC61966-2.1, 1, 1, 1)" offset=".77209"/>
   <stop style="stop-color:#cfcfcf icc-color(sRGB-IEC61966-2.1, 0.81175232, 0.81175232, 0.81175232)" offset="1"/>
  </linearGradient>
  <linearGradient id="linearGradient12" x2="1" gradientTransform="matrix(0 -202.32 -202.32 0 692.42 606.32)" gradientUnits="userSpaceOnUse">
   <stop style="stop-color:#f9c924 icc-color(sRGB-IEC61966-2.1, 0.97647095, 0.78822327, 0.14117432)" offset="0"/>
   <stop style="stop-color:#e4af18 icc-color(sRGB-IEC61966-2.1, 0.894104, 0.68626404, 0.09411621)" offset=".31985"/>
   <stop style="stop-color:#fff98c icc-color(sRGB-IEC61966-2.1, 1, 0.97647095, 0.54901123)" offset=".68015"/>
   <stop style="stop-color:#ffd440 icc-color(sRGB-IEC61966-2.1, 1, 0.83135986, 0.25097656)" offset="1"/>
  </linearGradient>
  <linearGradient id="linearGradient19" x2="1" gradientTransform="matrix(0 -164.48 -164.48 0 615.12 448.06)" gradientUnits="userSpaceOnUse">
   <stop style="stop-color:#9e9e9e icc-color(sRGB-IEC61966-2.1, 0.61959839, 0.61959839, 0.61959839)" offset="0"/>
   <stop style="stop-color:#989898 icc-color(sRGB-IEC61966-2.1, 0.59606934, 0.59606934, 0.59606934)" offset=".22791"/>
   <stop style="stop-color:#e4e4e4 icc-color(sRGB-IEC61966-2.1, 0.894104, 0.894104, 0.894104)" offset=".41395"/>
   <stop style="stop-color:#c6c6c6 icc-color(sRGB-IEC61966-2.1, 0.77645874, 0.77645874, 0.77645874)" offset=".58605"/>
   <stop style="stop-color:#ffffff icc-color(sRGB-IEC61966-2.1, 1, 1, 1)" offset=".77209"/>
   <stop style="stop-color:#cfcfcf icc-color(sRGB-IEC61966-2.1, 0.81175232, 0.81175232, 0.81175232)" offset="1"/>
  </linearGradient>
  <linearGradient id="linearGradient24" x2="1" gradientTransform="matrix(0 -202.33 -202.33 0 615.12 606.33)" gradientUnits="userSpaceOnUse">
   <stop style="stop-color:#f9c924 icc-color(sRGB-IEC61966-2.1, 0.97647095, 0.78822327, 0.14117432)" offset="0"/>
   <stop style="stop-color:#e4af18 icc-color(sRGB-IEC61966-2.1, 0.894104, 0.68626404, 0.09411621)" offset=".31985"/>
   <stop style="stop-color:#fff98c icc-color(sRGB-IEC61966-2.1, 1, 0.97647095, 0.54901123)" offset=".68015"/>
   <stop style="stop-color:#ffd440 icc-color(sRGB-IEC61966-2.1, 1, 0.83135986, 0.25097656)" offset="1"/>
  </linearGradient>
  <linearGradient id="linearGradient29" x2="1" gradientTransform="matrix(0 -168.78 -168.78 0 615.12 580.96)" gradientUnits="userSpaceOnUse">
   <stop style="stop-color:#f9c924 icc-color(sRGB-IEC61966-2.1, 0.97647095, 0.78822327, 0.14117432)" offset="0"/>
   <stop style="stop-color:#e4af18 icc-color(sRGB-IEC61966-2.1, 0.894104, 0.68626404, 0.09411621)" offset=".31985"/>
   <stop style="stop-color:#fff98c icc-color(sRGB-IEC61966-2.1, 1, 0.97647095, 0.54901123)" offset=".68015"/>
   <stop style="stop-color:#ffd440 icc-color(sRGB-IEC61966-2.1, 1, 0.83135986, 0.25097656)" offset="1"/>
  </linearGradient>
  <clipPath id="clipPath31">
   <path transform="translate(-613.07 -401.45)" d="m0 768h1366v-768h-1366z"/>
  </clipPath>
  <linearGradient id="linearGradient37" x2="1" gradientTransform="matrix(0 -129.36 -129.36 0 615.12 438)" gradientUnits="userSpaceOnUse">
   <stop style="stop-color:#9e9e9e icc-color(sRGB-IEC61966-2.1, 0.61959839, 0.61959839, 0.61959839)" offset="0"/>
   <stop style="stop-color:#989898 icc-color(sRGB-IEC61966-2.1, 0.59606934, 0.59606934, 0.59606934)" offset=".22791"/>
   <stop style="stop-color:#e4e4e4 icc-color(sRGB-IEC61966-2.1, 0.894104, 0.894104, 0.894104)" offset=".41395"/>
   <stop style="stop-color:#c6c6c6 icc-color(sRGB-IEC61966-2.1, 0.77645874, 0.77645874, 0.77645874)" offset=".58605"/>
   <stop style="stop-color:#ffffff icc-color(sRGB-IEC61966-2.1, 1, 1, 1)" offset=".77209"/>
   <stop style="stop-color:#cfcfcf icc-color(sRGB-IEC61966-2.1, 0.81175232, 0.81175232, 0.81175232)" offset="1"/>
  </linearGradient>
  <linearGradient id="linearGradient42" x2="1" gradientTransform="matrix(0 -202.33 -202.33 0 777.55 606.33)" gradientUnits="userSpaceOnUse">
   <stop style="stop-color:#f9c924 icc-color(sRGB-IEC61966-2.1, 0.97647095, 0.78822327, 0.14117432)" offset="0"/>
   <stop style="stop-color:#e4af18 icc-color(sRGB-IEC61966-2.1, 0.894104, 0.68626404, 0.09411621)" offset=".31985"/>
   <stop style="stop-color:#fff98c icc-color(sRGB-IEC61966-2.1, 1, 0.97647095, 0.54901123)" offset=".68015"/>
   <stop style="stop-color:#ffd440 icc-color(sRGB-IEC61966-2.1, 1, 0.83135986, 0.25097656)" offset="1"/>
  </linearGradient>
  <linearGradient id="linearGradient49" x2="1" gradientTransform="matrix(0 -164.48 -164.48 0 777.55 448.06)" gradientUnits="userSpaceOnUse">
   <stop style="stop-color:#9e9e9e icc-color(sRGB-IEC61966-2.1, 0.61959839, 0.61959839, 0.61959839)" offset="0"/>
   <stop style="stop-color:#989898 icc-color(sRGB-IEC61966-2.1, 0.59606934, 0.59606934, 0.59606934)" offset=".22791"/>
   <stop style="stop-color:#e4e4e4 icc-color(sRGB-IEC61966-2.1, 0.894104, 0.894104, 0.894104)" offset=".41395"/>
   <stop style="stop-color:#c6c6c6 icc-color(sRGB-IEC61966-2.1, 0.77645874, 0.77645874, 0.77645874)" offset=".58605"/>
   <stop style="stop-color:#ffffff icc-color(sRGB-IEC61966-2.1, 1, 1, 1)" offset=".77209"/>
   <stop style="stop-color:#cfcfcf icc-color(sRGB-IEC61966-2.1, 0.81175232, 0.81175232, 0.81175232)" offset="1"/>
  </linearGradient>
  <linearGradient id="linearGradient56" x2="1" gradientTransform="matrix(0 -133.42 -133.42 0 777.53 440.24)" gradientUnits="userSpaceOnUse">
   <stop style="stop-color:#9e9e9e icc-color(sRGB-IEC61966-2.1, 0.61959839, 0.61959839, 0.61959839)" offset="0"/>
   <stop style="stop-color:#989898 icc-color(sRGB-IEC61966-2.1, 0.59606934, 0.59606934, 0.59606934)" offset=".22791"/>
   <stop style="stop-color:#e4e4e4 icc-color(sRGB-IEC61966-2.1, 0.894104, 0.894104, 0.894104)" offset=".41395"/>
   <stop style="stop-color:#c6c6c6 icc-color(sRGB-IEC61966-2.1, 0.77645874, 0.77645874, 0.77645874)" offset=".58605"/>
   <stop style="stop-color:#ffffff icc-color(sRGB-IEC61966-2.1, 1, 1, 1)" offset=".77209"/>
   <stop style="stop-color:#cfcfcf icc-color(sRGB-IEC61966-2.1, 0.81175232, 0.81175232, 0.81175232)" offset="1"/>
  </linearGradient>
  <linearGradient id="linearGradient61" x2="1" gradientTransform="matrix(0 -167.53 -167.53 0 777.53 580.89)" gradientUnits="userSpaceOnUse">
   <stop style="stop-color:#f9c924 icc-color(sRGB-IEC61966-2.1, 0.97647095, 0.78822327, 0.14117432)" offset="0"/>
   <stop style="stop-color:#e4af18 icc-color(sRGB-IEC61966-2.1, 0.894104, 0.68626404, 0.09411621)" offset=".31985"/>
   <stop style="stop-color:#fff98c icc-color(sRGB-IEC61966-2.1, 1, 0.97647095, 0.54901123)" offset=".68015"/>
   <stop style="stop-color:#ffd440 icc-color(sRGB-IEC61966-2.1, 1, 0.83135986, 0.25097656)" offset="1"/>
  </linearGradient>
  <linearGradient id="linearGradient66" x2="1" gradientTransform="matrix(0 -202.33 -202.33 0 668.86 606.33)" gradientUnits="userSpaceOnUse">
   <stop style="stop-color:#f9c924 icc-color(sRGB-IEC61966-2.1, 0.97647095, 0.78822327, 0.14117432)" offset="0"/>
   <stop style="stop-color:#e4af18 icc-color(sRGB-IEC61966-2.1, 0.894104, 0.68626404, 0.09411621)" offset=".31985"/>
   <stop style="stop-color:#fff98c icc-color(sRGB-IEC61966-2.1, 1, 0.97647095, 0.54901123)" offset=".68015"/>
   <stop style="stop-color:#ffd440 icc-color(sRGB-IEC61966-2.1, 1, 0.83135986, 0.25097656)" offset="1"/>
  </linearGradient>
  <linearGradient id="linearGradient73" x2="1" gradientTransform="matrix(0 -164.48 -164.48 0 668.86 448.06)" gradientUnits="userSpaceOnUse">
   <stop style="stop-color:#9e9e9e icc-color(sRGB-IEC61966-2.1, 0.61959839, 0.61959839, 0.61959839)" offset="0"/>
   <stop style="stop-color:#989898 icc-color(sRGB-IEC61966-2.1, 0.59606934, 0.59606934, 0.59606934)" offset=".22791"/>
   <stop style="stop-color:#e4e4e4 icc-color(sRGB-IEC61966-2.1, 0.894104, 0.894104, 0.894104)" offset=".41395"/>
   <stop style="stop-color:#c6c6c6 icc-color(sRGB-IEC61966-2.1, 0.77645874, 0.77645874, 0.77645874)" offset=".58605"/>
   <stop style="stop-color:#ffffff icc-color(sRGB-IEC61966-2.1, 1, 1, 1)" offset=".77209"/>
   <stop style="stop-color:#cfcfcf icc-color(sRGB-IEC61966-2.1, 0.81175232, 0.81175232, 0.81175232)" offset="1"/>
  </linearGradient>
  <linearGradient id="linearGradient78" x2="1" gradientTransform="matrix(0 -177.77 -177.77 0 668.85 590.93)" gradientUnits="userSpaceOnUse">
   <stop style="stop-color:#f9c924 icc-color(sRGB-IEC61966-2.1, 0.97647095, 0.78822327, 0.14117432)" offset="0"/>
   <stop style="stop-color:#e4af18 icc-color(sRGB-IEC61966-2.1, 0.894104, 0.68626404, 0.09411621)" offset=".31985"/>
   <stop style="stop-color:#fff98c icc-color(sRGB-IEC61966-2.1, 1, 0.97647095, 0.54901123)" offset=".68015"/>
   <stop style="stop-color:#ffd440 icc-color(sRGB-IEC61966-2.1, 1, 0.83135986, 0.25097656)" offset="1"/>
  </linearGradient>
  <linearGradient id="linearGradient85" x2="1" gradientTransform="matrix(0 -148.82 -148.82 0 668.85 446.13)" gradientUnits="userSpaceOnUse">
   <stop style="stop-color:#9e9e9e icc-color(sRGB-IEC61966-2.1, 0.61959839, 0.61959839, 0.61959839)" offset="0"/>
   <stop style="stop-color:#989898 icc-color(sRGB-IEC61966-2.1, 0.59606934, 0.59606934, 0.59606934)" offset=".22791"/>
   <stop style="stop-color:#e4e4e4 icc-color(sRGB-IEC61966-2.1, 0.894104, 0.894104, 0.894104)" offset=".41395"/>
   <stop style="stop-color:#c6c6c6 icc-color(sRGB-IEC61966-2.1, 0.77645874, 0.77645874, 0.77645874)" offset=".58605"/>
   <stop style="stop-color:#ffffff icc-color(sRGB-IEC61966-2.1, 1, 1, 1)" offset=".77209"/>
   <stop style="stop-color:#cfcfcf icc-color(sRGB-IEC61966-2.1, 0.81175232, 0.81175232, 0.81175232)" offset="1"/>
  </linearGradient>
  <linearGradient id="linearGradient90" x2="1" gradientTransform="matrix(0 -202.33 -202.33 0 723.14 606.33)" gradientUnits="userSpaceOnUse">
   <stop style="stop-color:#f9c924 icc-color(sRGB-IEC61966-2.1, 0.97647095, 0.78822327, 0.14117432)" offset="0"/>
   <stop style="stop-color:#e4af18 icc-color(sRGB-IEC61966-2.1, 0.894104, 0.68626404, 0.09411621)" offset=".31985"/>
   <stop style="stop-color:#fff98c icc-color(sRGB-IEC61966-2.1, 1, 0.97647095, 0.54901123)" offset=".68015"/>
   <stop style="stop-color:#ffd440 icc-color(sRGB-IEC61966-2.1, 1, 0.83135986, 0.25097656)" offset="1"/>
  </linearGradient>
  <linearGradient id="linearGradient97" x2="1" gradientTransform="matrix(0 -164.48 -164.48 0 723.14 448.06)" gradientUnits="userSpaceOnUse">
   <stop style="stop-color:#9e9e9e icc-color(sRGB-IEC61966-2.1, 0.61959839, 0.61959839, 0.61959839)" offset="0"/>
   <stop style="stop-color:#989898 icc-color(sRGB-IEC61966-2.1, 0.59606934, 0.59606934, 0.59606934)" offset=".22791"/>
   <stop style="stop-color:#e4e4e4 icc-color(sRGB-IEC61966-2.1, 0.894104, 0.894104, 0.894104)" offset=".41395"/>
   <stop style="stop-color:#c6c6c6 icc-color(sRGB-IEC61966-2.1, 0.77645874, 0.77645874, 0.77645874)" offset=".58605"/>
   <stop style="stop-color:#ffffff icc-color(sRGB-IEC61966-2.1, 1, 1, 1)" offset=".77209"/>
   <stop style="stop-color:#cfcfcf icc-color(sRGB-IEC61966-2.1, 0.81175232, 0.81175232, 0.81175232)" offset="1"/>
  </linearGradient>
  <linearGradient id="linearGradient104" x2="1" gradientTransform="matrix(0 -126.73 -126.73 0 723.14 429.87)" gradientUnits="userSpaceOnUse">
   <stop style="stop-color:#9e9e9e icc-color(sRGB-IEC61966-2.1, 0.61959839, 0.61959839, 0.61959839)" offset="0"/>
   <stop style="stop-color:#989898 icc-color(sRGB-IEC61966-2.1, 0.59606934, 0.59606934, 0.59606934)" offset=".22791"/>
   <stop style="stop-color:#e4e4e4 icc-color(sRGB-IEC61966-2.1, 0.894104, 0.894104, 0.894104)" offset=".41395"/>
   <stop style="stop-color:#c6c6c6 icc-color(sRGB-IEC61966-2.1, 0.77645874, 0.77645874, 0.77645874)" offset=".58605"/>
   <stop style="stop-color:#ffffff icc-color(sRGB-IEC61966-2.1, 1, 1, 1)" offset=".77209"/>
   <stop style="stop-color:#cfcfcf icc-color(sRGB-IEC61966-2.1, 0.81175232, 0.81175232, 0.81175232)" offset="1"/>
  </linearGradient>
  <linearGradient id="linearGradient139" x2="1" gradientTransform="matrix(0 170.97 170.97 0 723.14 275.3)" gradientUnits="userSpaceOnUse">
   <stop style="stop-color:#9e9e9e icc-color(sRGB-IEC61966-2.1, 0.61959839, 0.61959839, 0.61959839)" offset="0"/>
   <stop style="stop-color:#989898 icc-color(sRGB-IEC61966-2.1, 0.59606934, 0.59606934, 0.59606934)" offset=".22791"/>
   <stop style="stop-color:#e4e4e4 icc-color(sRGB-IEC61966-2.1, 0.894104, 0.894104, 0.894104)" offset=".41395"/>
   <stop style="stop-color:#c6c6c6 icc-color(sRGB-IEC61966-2.1, 0.77645874, 0.77645874, 0.77645874)" offset=".58605"/>
   <stop style="stop-color:#ffffff icc-color(sRGB-IEC61966-2.1, 1, 1, 1)" offset=".77209"/>
   <stop style="stop-color:#cfcfcf icc-color(sRGB-IEC61966-2.1, 0.81175232, 0.81175232, 0.81175232)" offset="1"/>
  </linearGradient>
  <linearGradient id="linearGradient144" x2="1" gradientTransform="matrix(0 -181.77 -181.77 0 723.14 587.48)" gradientUnits="userSpaceOnUse">
   <stop style="stop-color:#f9c924 icc-color(sRGB-IEC61966-2.1, 0.97647095, 0.78822327, 0.14117432)" offset="0"/>
   <stop style="stop-color:#e4af18 icc-color(sRGB-IEC61966-2.1, 0.894104, 0.68626404, 0.09411621)" offset=".31985"/>
   <stop style="stop-color:#fff98c icc-color(sRGB-IEC61966-2.1, 1, 0.97647095, 0.54901123)" offset=".68015"/>
   <stop style="stop-color:#ffd440 icc-color(sRGB-IEC61966-2.1, 1, 0.83135986, 0.25097656)" offset="1"/>
  </linearGradient>
  <linearGradient id="linearGradient149" x2="1" gradientTransform="matrix(0 -202.34 -202.34 0 688.37 606.35)" gradientUnits="userSpaceOnUse">
   <stop style="stop-color:#f9c924 icc-color(sRGB-IEC61966-2.1, 0.97647095, 0.78822327, 0.14117432)" offset="0"/>
   <stop style="stop-color:#e4af18 icc-color(sRGB-IEC61966-2.1, 0.894104, 0.68626404, 0.09411621)" offset=".31985"/>
   <stop style="stop-color:#fff98c icc-color(sRGB-IEC61966-2.1, 1, 0.97647095, 0.54901123)" offset=".68015"/>
   <stop style="stop-color:#ffd440 icc-color(sRGB-IEC61966-2.1, 1, 0.83135986, 0.25097656)" offset="1"/>
  </linearGradient>
  <linearGradient id="linearGradient154" x2="1" gradientTransform="matrix(0 -202.33 -202.33 0 870.51 606.33)" gradientUnits="userSpaceOnUse">
   <stop style="stop-color:#f9c924 icc-color(sRGB-IEC61966-2.1, 0.97647095, 0.78822327, 0.14117432)" offset="0"/>
   <stop style="stop-color:#e4af18 icc-color(sRGB-IEC61966-2.1, 0.894104, 0.68626404, 0.09411621)" offset=".31985"/>
   <stop style="stop-color:#fff98c icc-color(sRGB-IEC61966-2.1, 1, 0.97647095, 0.54901123)" offset=".68015"/>
   <stop style="stop-color:#ffd440 icc-color(sRGB-IEC61966-2.1, 1, 0.83135986, 0.25097656)" offset="1"/>
  </linearGradient>
  <linearGradient id="linearGradient166" x2="1" gradientTransform="matrix(98.981 57.146 57.146 -98.981 295.57 193.43)" gradientUnits="userSpaceOnUse">
   <stop style="stop-color:#9e9e9e icc-color(sRGB-IEC61966-2.1, 0.61959839, 0.61959839, 0.61959839)" offset="0"/>
   <stop style="stop-color:#989898 icc-color(sRGB-IEC61966-2.1, 0.59606934, 0.59606934, 0.59606934)" offset=".22791"/>
   <stop style="stop-color:#e4e4e4 icc-color(sRGB-IEC61966-2.1, 0.894104, 0.894104, 0.894104)" offset=".41395"/>
   <stop style="stop-color:#c6c6c6 icc-color(sRGB-IEC61966-2.1, 0.77645874, 0.77645874, 0.77645874)" offset=".58605"/>
   <stop style="stop-color:#ffffff icc-color(sRGB-IEC61966-2.1, 1, 1, 1)" offset=".77209"/>
   <stop style="stop-color:#cfcfcf icc-color(sRGB-IEC61966-2.1, 0.81175232, 0.81175232, 0.81175232)" offset="1"/>
  </linearGradient>
  <linearGradient id="linearGradient173" x2="1" gradientTransform="matrix(75.939 43.843 43.843 -75.939 398.22 214.11)" gradientUnits="userSpaceOnUse">
   <stop style="stop-color:#9e9e9e icc-color(sRGB-IEC61966-2.1, 0.61959839, 0.61959839, 0.61959839)" offset="0"/>
   <stop style="stop-color:#989898 icc-color(sRGB-IEC61966-2.1, 0.59606934, 0.59606934, 0.59606934)" offset=".22791"/>
   <stop style="stop-color:#e4e4e4 icc-color(sRGB-IEC61966-2.1, 0.894104, 0.894104, 0.894104)" offset=".41395"/>
   <stop style="stop-color:#c6c6c6 icc-color(sRGB-IEC61966-2.1, 0.77645874, 0.77645874, 0.77645874)" offset=".58605"/>
   <stop style="stop-color:#ffffff icc-color(sRGB-IEC61966-2.1, 1, 1, 1)" offset=".77209"/>
   <stop style="stop-color:#cfcfcf icc-color(sRGB-IEC61966-2.1, 0.81175232, 0.81175232, 0.81175232)" offset="1"/>
  </linearGradient>
  <linearGradient id="linearGradient180" x2="1" gradientTransform="matrix(46.581 26.894 26.894 -46.581 461.91 208.76)" gradientUnits="userSpaceOnUse">
   <stop style="stop-color:#9e9e9e icc-color(sRGB-IEC61966-2.1, 0.61959839, 0.61959839, 0.61959839)" offset="0"/>
   <stop style="stop-color:#989898 icc-color(sRGB-IEC61966-2.1, 0.59606934, 0.59606934, 0.59606934)" offset=".22791"/>
   <stop style="stop-color:#e4e4e4 icc-color(sRGB-IEC61966-2.1, 0.894104, 0.894104, 0.894104)" offset=".41395"/>
   <stop style="stop-color:#c6c6c6 icc-color(sRGB-IEC61966-2.1, 0.77645874, 0.77645874, 0.77645874)" offset=".58605"/>
   <stop style="stop-color:#ffffff icc-color(sRGB-IEC61966-2.1, 1, 1, 1)" offset=".77209"/>
   <stop style="stop-color:#cfcfcf icc-color(sRGB-IEC61966-2.1, 0.81175232, 0.81175232, 0.81175232)" offset="1"/>
  </linearGradient>
  <linearGradient id="linearGradient185" x2="1" gradientTransform="matrix(61.96 35.772 35.772 -61.96 540.36 213.03)" gradientUnits="userSpaceOnUse">
   <stop style="stop-color:#f9c924 icc-color(sRGB-IEC61966-2.1, 0.97647095, 0.78822327, 0.14117432)" offset="0"/>
   <stop style="stop-color:#e4af18 icc-color(sRGB-IEC61966-2.1, 0.894104, 0.68626404, 0.09411621)" offset=".31985"/>
   <stop style="stop-color:#fff98c icc-color(sRGB-IEC61966-2.1, 1, 0.97647095, 0.54901123)" offset=".68015"/>
   <stop style="stop-color:#ffd440 icc-color(sRGB-IEC61966-2.1, 1, 0.83135986, 0.25097656)" offset="1"/>
  </linearGradient>
  <linearGradient id="linearGradient190" x2="1" gradientTransform="matrix(72.67 41.956 41.956 -72.67 601.11 195.7)" gradientUnits="userSpaceOnUse">
   <stop style="stop-color:#f9c924 icc-color(sRGB-IEC61966-2.1, 0.97647095, 0.78822327, 0.14117432)" offset="0"/>
   <stop style="stop-color:#e4af18 icc-color(sRGB-IEC61966-2.1, 0.894104, 0.68626404, 0.09411621)" offset=".31985"/>
   <stop style="stop-color:#fff98c icc-color(sRGB-IEC61966-2.1, 1, 0.97647095, 0.54901123)" offset=".68015"/>
   <stop style="stop-color:#ffd440 icc-color(sRGB-IEC61966-2.1, 1, 0.83135986, 0.25097656)" offset="1"/>
  </linearGradient>
  <linearGradient id="linearGradient195" x2="1" gradientTransform="matrix(67.467 38.952 38.952 -67.467 678.82 186.04)" gradientUnits="userSpaceOnUse">
   <stop style="stop-color:#f9c924 icc-color(sRGB-IEC61966-2.1, 0.97647095, 0.78822327, 0.14117432)" offset="0"/>
   <stop style="stop-color:#e4af18 icc-color(sRGB-IEC61966-2.1, 0.894104, 0.68626404, 0.09411621)" offset=".31985"/>
   <stop style="stop-color:#fff98c icc-color(sRGB-IEC61966-2.1, 1, 0.97647095, 0.54901123)" offset=".68015"/>
   <stop style="stop-color:#ffd440 icc-color(sRGB-IEC61966-2.1, 1, 0.83135986, 0.25097656)" offset="1"/>
  </linearGradient>
  <linearGradient id="linearGradient200" x2="1" gradientTransform="matrix(76.573 44.209 44.209 -76.573 760.51 199.08)" gradientUnits="userSpaceOnUse">
   <stop style="stop-color:#f9c924 icc-color(sRGB-IEC61966-2.1, 0.97647095, 0.78822327, 0.14117432)" offset="0"/>
   <stop style="stop-color:#e4af18 icc-color(sRGB-IEC61966-2.1, 0.894104, 0.68626404, 0.09411621)" offset=".31985"/>
   <stop style="stop-color:#fff98c icc-color(sRGB-IEC61966-2.1, 1, 0.97647095, 0.54901123)" offset=".68015"/>
   <stop style="stop-color:#ffd440 icc-color(sRGB-IEC61966-2.1, 1, 0.83135986, 0.25097656)" offset="1"/>
  </linearGradient>
  <linearGradient id="linearGradient205" x2="1" gradientTransform="matrix(41.326 23.86 23.86 -41.326 847.78 208.11)" gradientUnits="userSpaceOnUse">
   <stop style="stop-color:#f9c924 icc-color(sRGB-IEC61966-2.1, 0.97647095, 0.78822327, 0.14117432)" offset="0"/>
   <stop style="stop-color:#e4af18 icc-color(sRGB-IEC61966-2.1, 0.894104, 0.68626404, 0.09411621)" offset=".31985"/>
   <stop style="stop-color:#fff98c icc-color(sRGB-IEC61966-2.1, 1, 0.97647095, 0.54901123)" offset=".68015"/>
   <stop style="stop-color:#ffd440 icc-color(sRGB-IEC61966-2.1, 1, 0.83135986, 0.25097656)" offset="1"/>
  </linearGradient>
  <linearGradient id="linearGradient210" x2="1" gradientTransform="matrix(85.545 49.39 49.39 -85.545 883.24 193.61)" gradientUnits="userSpaceOnUse">
   <stop style="stop-color:#f9c924 icc-color(sRGB-IEC61966-2.1, 0.97647095, 0.78822327, 0.14117432)" offset="0"/>
   <stop style="stop-color:#e4af18 icc-color(sRGB-IEC61966-2.1, 0.894104, 0.68626404, 0.09411621)" offset=".31985"/>
   <stop style="stop-color:#fff98c icc-color(sRGB-IEC61966-2.1, 1, 0.97647095, 0.54901123)" offset=".68015"/>
   <stop style="stop-color:#ffd440 icc-color(sRGB-IEC61966-2.1, 1, 0.83135986, 0.25097656)" offset="1"/>
  </linearGradient>
  <linearGradient id="linearGradient215" x2="1" gradientTransform="matrix(71.89 41.506 41.506 -71.89 985.07 197.35)" gradientUnits="userSpaceOnUse">
   <stop style="stop-color:#f9c924 icc-color(sRGB-IEC61966-2.1, 0.97647095, 0.78822327, 0.14117432)" offset="0"/>
   <stop style="stop-color:#e4af18 icc-color(sRGB-IEC61966-2.1, 0.894104, 0.68626404, 0.09411621)" offset=".31985"/>
   <stop style="stop-color:#fff98c icc-color(sRGB-IEC61966-2.1, 1, 0.97647095, 0.54901123)" offset=".68015"/>
   <stop style="stop-color:#ffd440 icc-color(sRGB-IEC61966-2.1, 1, 0.83135986, 0.25097656)" offset="1"/>
  </linearGradient>
 </defs>
 <path transform="matrix(1.3333 0 0 -1.3333 0 1024)" d="m830.01 486.41c4.931-14.273 7.606-29.583 7.606-45.51 0-46.371-22.694-87.545-57.557-113.01-1.647-1.204-3.324-2.369-5.03-3.498-14.739-9.815-31.436-16.902-49.374-20.544-1.661-0.337-3.346-0.648-5.03-0.923-7.437-1.227-15.066-1.866-22.846-1.866-9.024 0-17.847 0.861-26.398 2.498-1.691 0.329-3.368 0.68-5.037 1.068-17.764 4.092-34.239 11.583-48.711 21.741-1.707 1.196-3.383 2.431-5.029 3.696-14.54 11.202-26.825 25.186-36.038 41.166l-8.062-5.836c26.016-44.376 74.224-74.24 129.28-74.24 82.568 0 149.74 67.175 149.74 149.74 0 18.511-3.376 36.243-9.541 52.62z" style="fill:url(#linearGradient7)"/>
 <path transform="matrix(1.3333 0 0 -1.3333 0 1024)" d="m548.03 440.91c0-24.053 5.699-46.773 15.801-66.903 0.443-0.926 0.925-1.851 1.406-2.776 0.148-0.295 0.296-0.592 0.444-0.851 0.296-0.518 0.556-1.036 0.851-1.517 0.148-0.297 0.297-0.555 0.444-0.814l8.104 5.846c-0.148 0.296-0.296 0.555-0.444 0.852-0.37 0.629-0.703 1.295-1.036 1.924-0.148 0.259-0.296 0.555-0.443 0.814-0.482 0.925-0.927 1.887-1.37 2.812-8.881 18.354-13.839 38.892-13.839 60.613 0 45.071 21.425 85.221 54.655 110.83 0.296 0.222 0.592 0.48 0.925 0.703 1.036 0.776 2.109 1.554 3.182 2.331 0.296 0.222 0.628 0.444 0.925 0.666 14.468 10.139 30.935 17.651 48.698 21.722 0.296 0.074 0.629 0.148 0.925 0.221 1.073 0.223 2.109 0.445 3.182 0.666 0.296 0.074 0.629 0.112 0.925 0.186 8.549 1.628 17.392 2.516 26.421 2.516 7.771 0 15.393-0.666 22.832-1.887 0.296-0.037 0.629-0.111 0.925-0.148 1.073-0.185 2.147-0.37 3.183-0.593 0.296-0.074 0.629-0.11 0.924-0.184 17.948-3.626 34.636-10.732 49.364-20.537 0.296-0.186 0.629-0.407 0.925-0.629 1.074-0.703 2.147-1.444 3.183-2.184 0.333-0.222 0.629-0.444 0.925-0.666 15.912-11.657 29.307-26.532 39.15-43.702 0.518-0.888 1.037-1.814 1.518-2.738 0.147-0.297 0.295-0.555 0.443-0.851 2.812-5.217 5.292-10.621 7.365-16.208 0.147-0.296 0.258-0.629 0.37-0.926l7.919 7.031c-0.112 0.296-0.26 0.629-0.408 0.925-2.293 5.625-4.921 11.064-7.845 16.319-0.148 0.296-0.333 0.556-0.481 0.852-0.518 0.925-1.036 1.813-1.591 2.701-26.125 43.887-74.046 73.305-128.7 73.305-82.593 0-149.76-67.162-149.76-149.72" style="fill:url(#linearGradient12)"/>
 <path transform="matrix(1.3333 0 0 -1.3333 0 1024)" d="m617.64 401-5.029-3.651-13.238-9.586v-16.766h31.504v39.589z" style="fill:url(#linearGradient19)"/>
 <path transform="matrix(1.3333 0 0 -1.3333 0 1024)" d="m599.37 466.31v-74.796l13.238 9.595 0.465 0.335 17.801 12.901v51.965z" style="fill:url(#linearGradient24)"/>
 <path transform="matrix(1.3333 0 0 -1.3333 0 1024)" d="m616.71 541.45c-1.073-0.852-2.146-1.74-3.182-2.628-0.296-0.295-0.629-0.555-0.925-0.814v-84.665h5.032v88.847c-0.297-0.223-0.629-0.481-0.925-0.74" style="fill:url(#linearGradient29)"/>
 <path transform="matrix(1.3333 0 0 -1.3333 817.43 488.74)" d="m0 0-0.465-0.335v0.335z" clip-path="url(#clipPath31)" style="fill:#29a4df icc-color(sRGB-IEC61966-2, 0.1, 0.16099548, 0.64299011, 0.875)"/>
 <path transform="matrix(1.3333 0 0 -1.3333 0 1024)" d="m612.61 397.36v-53.397c0.296-0.259 0.629-0.555 0.925-0.814 1.036-0.888 2.109-1.776 3.182-2.664 0.296-0.259 0.628-0.518 0.925-0.741v61.242z" style="fill:url(#linearGradient37)"/>
 <path transform="matrix(1.3333 0 0 -1.3333 0 1024)" d="m761.79 488.95v-59.281l31.503 28.089v31.192z" style="fill:url(#linearGradient42)"/>
 <path transform="matrix(1.3333 0 0 -1.3333 0 1024)" d="m761.79 425.6v-31.961h31.503v60.042z" style="fill:url(#linearGradient49)"/>
 <path transform="matrix(1.3333 0 0 -1.3333 0 1024)" d="m775.02 406.61v-69.568c0.296 0.223 0.629 0.445 0.925 0.703 1.074 0.815 2.147 1.629 3.183 2.48 0.296 0.221 0.629 0.481 0.925 0.74v65.645z" style="fill:url(#linearGradient56)"/>
 <path transform="matrix(1.3333 0 0 -1.3333 0 1024)" d="m775.02 458.49h5.033v82.482c-0.296 0.259-0.629 0.519-0.925 0.741-1.036 0.85-2.109 1.702-3.183 2.516-0.296 0.222-0.629 0.444-0.925 0.703z" style="fill:url(#linearGradient61)"/>
 <path transform="matrix(1.3333 0 0 -1.3333 0 1024)" d="m653.11 492.52v-62.063l23.014 16.675 8.497-10.411v55.799z" style="fill:url(#linearGradient66)"/>
 <path transform="matrix(1.3333 0 0 -1.3333 0 1024)" d="m653.11 426.7v-29.492h31.511v34.689l-9.045 11.08z" style="fill:url(#linearGradient73)"/>
 <path transform="matrix(1.3333 0 0 -1.3333 0 1024)" d="m670.44 567.32c-1.073-0.223-2.146-0.482-3.182-0.74-0.333-0.075-0.629-0.149-0.925-0.222v-86.812h5.032v87.958c-0.333-0.037-0.629-0.11-0.925-0.184" style="fill:url(#linearGradient78)"/>
 <path transform="matrix(1.3333 0 0 -1.3333 0 1024)" d="m666.34 427.66v-112.05c0.296-0.073 0.592-0.147 0.925-0.222 1.036-0.258 2.109-0.517 3.182-0.739 0.296-0.074 0.592-0.148 0.925-0.185v113.2z" style="fill:url(#linearGradient85)"/>
 <path transform="matrix(1.3333 0 0 -1.3333 0 1024)" d="m707.39 451.22v-42.394l9-11.026 4.061-4.984 5.007 4.458 13.435 11.98v41.966z" style="fill:url(#linearGradient90)"/>
 <path transform="matrix(1.3333 0 0 -1.3333 0 1024)" d="m720.1 388.42-12.711 15.577v-48.094h31.503v49.275z" style="fill:url(#linearGradient97)"/>
 <path transform="matrix(1.3333 0 0 -1.3333 0 1024)" d="m720.62 368.86v-55.21c0.296 0.037 0.592 0.11 0.925 0.185 1.073 0.185 2.147 0.37 3.183 0.591 0.333 0.075 0.629 0.149 0.924 0.223v54.211z" style="fill:url(#linearGradient104)"/>
 <path transform="matrix(1.3333 0 0 -1.3333 0 1024)" d="m719.97 386.82-11.474 14.061v-43.868h13.23v-42.019c0.932 0.162 1.865 0.327 2.764 0.519l0.051 0.012v41.488h13.24v45.687z" style="fill:url(#linearGradient139)"/>
 <path transform="matrix(1.3333 0 0 -1.3333 0 1024)" d="m720.62 420.78h5.032v146.54c-0.295 0.074-0.591 0.147-0.924 0.221-1.036 0.222-2.11 0.408-3.183 0.592-0.333 0.074-0.629 0.149-0.925 0.186z" style="fill:url(#linearGradient144)"/>
 <path transform="matrix(1.3333 0 0 -1.3333 0 1024)" d="m857.39 543.15-29.308-28.53-0.703-0.666-5.957-5.81-0.703-0.666-7.623-7.4-19.798-19.28-0.925-0.889-12.322-11.989-5.033-4.885-12.286-11.989-0.924-0.888-22.906-22.276-0.925-0.888-16.468-16.024-13.209 14.766-0.926 1.036-22.757 25.569-0.926 1.036-6.142 6.884-3.479-2.739-20.018-15.874-0.926-0.741-22.239-17.651-0.926-0.74-29.677-23.498-0.925-0.74-17.54-13.914-8.658-6.882-0.741-0.592-6.439-5.07-0.74-0.592-64.794-51.399 66.533 48.217 8.104 5.846 8.807 6.402 15.468 11.212 13.248 9.585 0.48 0.369 17.8 12.878 22.239 16.134 22.98 16.652 8.511-10.398 22.757-27.901 9.03-11.028 4.033-4.995 5.032 4.478 13.433 11.951 22.906 20.427 31.49 28.086 27.346 24.423 8.253 7.326 7.919 7.031 34.709 30.973 4.774 4.255-14.543 15.616z" style="fill:url(#linearGradient149)"/>
 <path transform="matrix(1.3333 0 0 -1.3333 0 1024)" d="m845.89 554.54 34.989-38.857 14.251 46.284z" style="fill:url(#linearGradient154)"/>
 <path transform="matrix(1.3333 0 0 -1.3333 0 1024)" d="m370.02 262.86-26.667-32.409-26.667 32.409c-0.936 1.19-2.296 1.786-4.083 1.786-1.447 0-2.637-0.533-3.572-1.594-0.938-1.066-1.404-2.277-1.404-3.637 0-1.021 0.384-2.127 1.148-3.318l28.198-33.301-30.111-35.854c-0.851-1.106-1.276-2.169-1.276-3.189 0-1.447 0.489-2.68 1.467-3.7 0.977-1.021 2.233-1.532 3.764-1.532 1.786 0 3.105 0.553 3.955 1.66l28.581 34.704 28.581-34.704c0.849-1.107 2.169-1.66 3.955-1.66 1.531 0 2.785 0.511 3.764 1.532 0.977 1.02 1.467 2.253 1.467 3.7 0 1.02-0.426 2.083-1.275 3.189l-30.112 35.854 28.198 33.428c0.765 0.936 1.148 1.998 1.148 3.191 0 1.36-0.49 2.571-1.467 3.637-0.979 1.061-2.191 1.594-3.637 1.594-1.702 0-3.02-0.596-3.955-1.786" style="fill:url(#linearGradient166)"/>
 <path transform="matrix(1.3333 0 0 -1.3333 0 1024)" d="m454.49 261.08-27.559-70.432-27.56 70.432c-0.683 2.38-2.425 3.572-5.232 3.572-1.617 0-2.957-0.553-4.019-1.658-1.065-1.107-1.595-2.425-1.595-3.956 0-0.766 0.169-1.448 0.51-2.042l29.219-72.599c1.614-3.913 4.507-5.87 8.677-5.87 4.251 0 7.144 1.957 8.676 5.87l29.218 72.599c0.339 0.766 0.51 1.446 0.51 2.042 0 1.531-0.554 2.849-1.658 3.956-1.107 1.105-2.425 1.658-3.956 1.658-2.468 0-4.21-1.192-5.231-3.572" style="fill:url(#linearGradient173)"/>
 <path transform="matrix(1.3333 0 0 -1.3333 0 1024)" d="m480.39 263.12c-1.021-1.021-1.531-2.256-1.531-3.701v-75.662c0-1.447 0.51-2.68 1.531-3.7 1.02-1.021 2.296-1.532 3.828-1.532 1.445 0 2.679 0.531 3.7 1.595 1.021 1.063 1.531 2.276 1.531 3.637v75.662c0 1.445-0.51 2.68-1.531 3.701-1.021 1.019-2.255 1.53-3.7 1.53-1.532 0-2.808-0.511-3.828-1.53" style="fill:url(#linearGradient180)"/>
 <path transform="matrix(1.3333 0 0 -1.3333 0 1024)" d="m540.61 264.14c-1.276 0-2.383-0.467-3.317-1.404-0.938-0.937-1.404-2.041-1.404-3.316 0-1.276 0.466-2.382 1.404-3.318 0.934-0.937 2.041-1.403 3.317-1.403h22.711v-70.941c0-1.447 0.531-2.68 1.596-3.7 1.062-1.021 2.316-1.532 3.763-1.532 1.446 0 2.68 0.511 3.7 1.532 1.021 1.02 1.531 2.253 1.531 3.7v70.941h22.84c1.276 0 2.38 0.466 3.317 1.403 0.935 0.936 1.403 2.042 1.403 3.318 0 1.275-0.468 2.379-1.403 3.316-0.937 0.937-2.041 1.404-3.317 1.404z" style="fill:url(#linearGradient185)"/>
 <path transform="matrix(1.3333 0 0 -1.3333 0 1024)" d="m620.61 264.14c-3.743 0-5.615-1.872-5.615-5.614v-74.768c0-1.447 0.512-2.68 1.532-3.7 1.021-1.021 2.297-1.532 3.828-1.532 1.445 0 2.68 0.531 3.7 1.595 1.02 1.063 1.531 2.276 1.531 3.637v29.09h18.757l22.2-32.153c1.021-1.447 2.508-2.169 4.467-2.169 1.445 0 2.656 0.49 3.636 1.468 0.976 0.975 1.467 2.105 1.467 3.381 0 1.104-0.341 2.211-1.021 3.318l-19.522 27.304c5.954 0.848 10.824 3.465 14.61 7.847 3.784 4.379 5.678 9.93 5.678 16.65 0 7.739-2.469 13.951-7.401 18.629-4.934 4.676-11.355 7.017-19.266 7.017zm4.976-9.441h22.329c5.017 0 9.1-1.511 12.249-4.529 3.146-3.021 4.721-6.912 4.721-11.676s-1.575-8.675-4.721-11.738c-3.149-3.062-7.232-4.594-12.249-4.594h-22.329z" style="fill:url(#linearGradient190)"/>
 <path transform="matrix(1.3333 0 0 -1.3333 0 1024)" d="m715.92 258.78-29.347-72.729c-0.341-0.936-0.509-1.658-0.509-2.169 0-1.448 0.53-2.701 1.594-3.764 1.063-1.064 2.36-1.595 3.891-1.595 2.636 0 4.295 1.148 4.976 3.446l6.125 15.948h43.764l6.125-15.948c1.02-2.298 2.721-3.446 5.103-3.446 1.446 0 2.7 0.531 3.765 1.595 1.061 1.063 1.594 2.36 1.594 3.891 0 0.085-0.127 0.766-0.382 2.042l-29.474 72.729c-1.532 3.91-4.382 5.868-8.549 5.868-4.254 0-7.145-1.958-8.676-5.868m8.676-4.084 18.246-47.337h-36.491z" style="fill:url(#linearGradient195)"/>
 <path transform="matrix(1.3333 0 0 -1.3333 0 1024)" d="m805.61 264.14h-23.477c-3.744 0-5.614-1.872-5.614-5.614v-73.875c0-3.745 1.87-5.614 5.614-5.614h23.477c12.759-0.084 23.263 3.955 31.515 12.121 8.249 8.166 12.29 18.287 12.121 30.367 0.169 12.077-3.872 22.243-12.121 30.495-8.087 8.083-18.335 12.125-30.748 12.125-0.255 0-0.511-1e-3 -0.767-5e-3m-18.502-9.441h18.502c10.035 0 17.99-3.126 23.858-9.379 5.871-6.251 8.805-14.185 8.805-23.795 0-9.442-2.978-17.311-8.931-23.605-5.956-6.295-13.866-9.442-23.732-9.442h-18.502z" style="fill:url(#linearGradient200)"/>
 <path transform="matrix(1.3333 0 0 -1.3333 0 1024)" d="m867.37 263.12c-1.022-1.021-1.531-2.256-1.531-3.701v-75.662c0-1.447 0.509-2.68 1.531-3.7 1.021-1.021 2.297-1.532 3.828-1.532 1.446 0 2.68 0.531 3.7 1.595 1.021 1.063 1.53 2.276 1.53 3.637v75.662c0 1.445-0.509 2.68-1.53 3.701-1.02 1.019-2.254 1.53-3.7 1.53-1.531 0-2.807-0.511-3.828-1.53" style="fill:url(#linearGradient205)"/>
 <path transform="matrix(1.3333 0 0 -1.3333 0 1024)" d="m957.77 263.12c-1.065-1.021-1.595-2.256-1.595-3.701v-62.521l-47.336 64.944c-1.362 1.871-3.234 2.808-5.615 2.808-1.871 0-3.488-0.683-4.848-2.042-1.362-1.361-2.042-2.977-2.042-4.848v-74.003c0-1.447 0.511-2.68 1.531-3.7 1.022-1.021 2.297-1.532 3.828-1.532 1.446 0 2.68 0.531 3.701 1.595 1.02 1.063 1.53 2.276 1.53 3.637v63.924l47.975-66.476c1.276-1.786 3.062-2.68 5.359-2.68 1.786 0 3.317 0.639 4.593 1.914 1.277 1.276 1.914 2.807 1.914 4.593v74.387c0 1.445-0.51 2.68-1.531 3.701-1.02 1.019-2.297 1.53-3.828 1.53-1.362 0-2.574-0.511-3.636-1.53" style="fill:url(#linearGradient210)"/>
 <path transform="matrix(1.3333 0 0 -1.3333 0 1024)" d="m995.79 253.17c-8.547-8.421-12.74-18.97-12.569-31.643-0.171-12.759 4.022-23.35 12.569-31.772 8.549-8.42 18.948-12.545 31.197-12.375 11.822 0 22.029 3.955 30.621 11.866 1.87 1.787 2.807 4.124 2.807 7.017v20.798c0 3.828-1.872 5.742-5.613 5.742h-29.984c-1.277 0-2.384-0.469-3.318-1.404-0.938-0.937-1.405-2.042-1.405-3.317s0.467-2.381 1.405-3.318c0.934-0.937 2.041-1.402 3.318-1.402h25.007v-17.353c-2.638-2.639-5.997-4.829-10.079-6.571-4.084-1.745-8.338-2.617-12.759-2.617-9.188-0.171-16.992 3.126-23.414 9.889-6.423 6.762-9.549 15.034-9.378 24.817-0.171 9.867 2.955 18.138 9.378 24.817 6.422 6.677 14.226 9.93 23.414 9.76 8.759 0 16.203-3.062 22.329-9.186 0.934-0.938 2.124-1.403 3.572-1.403 1.359 0 2.507 0.465 3.445 1.403 0.935 0.935 1.403 2.083 1.403 3.444 0 1.532-0.468 2.68-1.403 3.446-7.827 7.825-17.609 11.738-29.346 11.738-0.242 4e-3 -0.482 5e-3 -0.722 5e-3 -11.936 0-22.095-4.126-30.475-12.381" style="fill:url(#linearGradient215)"/>
</svg>
