{
	"asset":{
		"generator":"Khronos glTF Blender I/O v3.6.6",
		"version":"2.0"
	},
	"scene":0,
	"scenes":[
		{
			"name":"Scene",
			"nodes":[
				0,
				1
			]
		}
	],
	"nodes":[
		{
			"mesh":0,
			"name":"top"
		},
		{
			"mesh":1,
			"name":"path372"
		}
	],
	"animations":[
		{
			"channels":[
				{
					"sampler":0,
					"target":{
						"node":0,
						"path":"translation"
					}
				},
				{
					"sampler":1,
					"target":{
						"node":0,
						"path":"rotation"
					}
				}
			],
			"name":"path374Action",
			"samplers":[
				{
					"input":6,
					"interpolation":"LINEAR",
					"output":7
				},
				{
					"input":6,
					"interpolation":"LINEAR",
					"output":8
				}
			]
		},
		{
			"channels":[
				{
					"sampler":0,
					"target":{
						"node":1,
						"path":"translation"
					}
				},
				{
					"sampler":1,
					"target":{
						"node":1,
						"path":"rotation"
					}
				}
			],
			"name":"path372Action",
			"samplers":[
				{
					"input":6,
					"interpolation":"LINEAR",
					"output":9
				},
				{
					"input":6,
					"interpolation":"LINEAR",
					"output":10
				}
			]
		}
	],
	"materials":[
		{
			"doubleSided":true,
			"name":"silver",
			"pbrMetallicRoughness":{
				"baseColorFactor":[
					0.5271145105361938,
					0.5271146893501282,
					0.5271151661872864,
					1
				],
				"metallicFactor":0.8905109763145447,
				"roughnessFactor":0.26861315965652466
			}
		},
		{
			"doubleSided":true,
			"name":"SVGMat.297",
			"pbrMetallicRoughness":{
				"baseColorFactor":[
					1,
					0.6795420050621033,
					0,
					1
				],
				"metallicFactor":0.7007299065589905,
				"roughnessFactor":0.29051095247268677
			}
		}
	],
	"meshes":[
		{
			"name":"path374.001",
			"primitives":[
				{
					"attributes":{
						"POSITION":0,
						"NORMAL":1
					},
					"indices":2,
					"material":0
				}
			]
		},
		{
			"name":"path372.001",
			"primitives":[
				{
					"attributes":{
						"POSITION":3,
						"NORMAL":4
					},
					"indices":5,
					"material":1
				}
			]
		}
	],
	"accessors":[
		{
			"bufferView":0,
			"componentType":5126,
			"count":12206,
			"max":[
				1.2124886512756348,
				0.05044850707054138,
				-0.05992911756038666
			],
			"min":[
				0.46319419145584106,
				-2.980232238769531e-07,
				-0.5953665971755981
			],
			"type":"VEC3"
		},
		{
			"bufferView":1,
			"componentType":5126,
			"count":12206,
			"type":"VEC3"
		},
		{
			"bufferView":2,
			"componentType":5123,
			"count":60456,
			"type":"SCALAR"
		},
		{
			"bufferView":3,
			"componentType":5126,
			"count":39088,
			"max":[
				1.3457366228103638,
				0.05044901371002197,
				-0.1936415731906891
			],
			"min":[
				0.3610687553882599,
				0,
				-0.861178994178772
			],
			"type":"VEC3"
		},
		{
			"bufferView":4,
			"componentType":5126,
			"count":39088,
			"type":"VEC3"
		},
		{
			"bufferView":5,
			"componentType":5123,
			"count":207504,
			"type":"SCALAR"
		},
		{
			"bufferView":6,
			"componentType":5126,
			"count":40,
			"max":[
				1.6666666666666667
			],
			"min":[
				0.041666666666666664
			],
			"type":"SCALAR"
		},
		{
			"bufferView":7,
			"componentType":5126,
			"count":40,
			"type":"VEC3"
		},
		{
			"bufferView":8,
			"componentType":5126,
			"count":40,
			"type":"VEC4"
		},
		{
			"bufferView":9,
			"componentType":5126,
			"count":40,
			"type":"VEC3"
		},
		{
			"bufferView":10,
			"componentType":5126,
			"count":40,
			"type":"VEC4"
		}
	],
	"bufferViews":[
		{
			"buffer":0,
			"byteLength":146472,
			"byteOffset":0,
			"target":34962
		},
		{
			"buffer":0,
			"byteLength":146472,
			"byteOffset":146472,
			"target":34962
		},
		{
			"buffer":0,
			"byteLength":120912,
			"byteOffset":292944,
			"target":34963
		},
		{
			"buffer":0,
			"byteLength":469056,
			"byteOffset":413856,
			"target":34962
		},
		{
			"buffer":0,
			"byteLength":469056,
			"byteOffset":882912,
			"target":34962
		},
		{
			"buffer":0,
			"byteLength":415008,
			"byteOffset":1351968,
			"target":34963
		},
		{
			"buffer":0,
			"byteLength":160,
			"byteOffset":1766976
		},
		{
			"buffer":0,
			"byteLength":480,
			"byteOffset":1767136
		},
		{
			"buffer":0,
			"byteLength":640,
			"byteOffset":1767616
		},
		{
			"buffer":0,
			"byteLength":480,
			"byteOffset":1768256
		},
		{
			"buffer":0,
			"byteLength":640,
			"byteOffset":1768736
		}
	],
	"buffers":[
		{
			"byteLength":1769376,
			"uri":"logo.bin"
		}
	]
}
