{
	"asset":{
		"generator":"Khronos glTF Blender I/O v3.6.6",
		"version":"2.0"
	},
	"scene":0,
	"scenes":[
		{
			"name":"Scene",
			"nodes":[
				0,
				1,
				2,
				3
			]
		}
	],
	"nodes":[
		{
			"mesh":0,
			"name":"bottom"
		},
		{
			"mesh":1,
			"name":"top"
		},
		{
			"mesh":2,
			"name":"xvi"
		},
		{
			"mesh":3,
			"name":"trading"
		}
	],
	"materials":[
		{
			"doubleSided":true,
			"name":"Material.001",
			"pbrMetallicRoughness":{
				"baseColorTexture":{
					"index":0
				},
				"metallicFactor":0,
				"roughnessFactor":0.5
			}
		}
	],
	"meshes":[
		{
			"name":"path300",
			"primitives":[
				{
					"attributes":{
						"POSITION":0,
						"TEXCOORD_0":1,
						"NORMAL":2
					},
					"indices":3,
					"material":0
				}
			]
		},
		{
			"name":"path281",
			"primitives":[
				{
					"attributes":{
						"POSITION":4,
						"TEXCOORD_0":5,
						"NORMAL":6
					},
					"indices":7,
					"material":0
				}
			]
		},
		{
			"name":"path279",
			"primitives":[
				{
					"attributes":{
						"POSITION":8,
						"TEXCOORD_0":9,
						"NORMAL":10
					},
					"indices":11,
					"material":0
				}
			]
		},
		{
			"name":"path272",
			"primitives":[
				{
					"attributes":{
						"POSITION":12,
						"TEXCOORD_0":13,
						"NORMAL":14
					},
					"indices":15,
					"material":0
				}
			]
		}
	],
	"textures":[
		{
			"sampler":0,
			"source":0
		}
	],
	"images":[
		{
			"mimeType":"image/jpeg",
			"name":"logo",
			"uri":"logo.jpg"
		}
	],
	"accessors":[
		{
			"bufferView":0,
			"componentType":5126,
			"count":2303,
			"max":[
				0.06596580147743225,
				0.023186825215816498,
				0.0018343105912208557
			],
			"min":[
				-0.03905123472213745,
				0,
				-0.07432294636964798
			],
			"type":"VEC3"
		},
		{
			"bufferView":1,
			"componentType":5126,
			"count":2303,
			"type":"VEC2"
		},
		{
			"bufferView":2,
			"componentType":5126,
			"count":2303,
			"type":"VEC3"
		},
		{
			"bufferView":3,
			"componentType":5123,
			"count":4380,
			"type":"SCALAR"
		},
		{
			"bufferView":4,
			"componentType":5126,
			"count":4187,
			"max":[
				0.08385905623435974,
				0.023186825215816498,
				-0.008916310966014862
			],
			"min":[
				-0.06467753648757935,
				0,
				-0.11086375266313553
			],
			"type":"VEC3"
		},
		{
			"bufferView":5,
			"componentType":5126,
			"count":4187,
			"type":"VEC2"
		},
		{
			"bufferView":6,
			"componentType":5126,
			"count":4187,
			"type":"VEC3"
		},
		{
			"bufferView":7,
			"componentType":5123,
			"count":8256,
			"type":"SCALAR"
		},
		{
			"bufferView":8,
			"componentType":5126,
			"count":2553,
			"max":[
				-0.06885451078414917,
				0.023186825215816498,
				0.044187791645526886
			],
			"min":[
				-0.1380285918712616,
				0,
				0.01176663488149643
			],
			"type":"VEC3"
		},
		{
			"bufferView":9,
			"componentType":5126,
			"count":2553,
			"type":"VEC2"
		},
		{
			"bufferView":10,
			"componentType":5126,
			"count":2553,
			"type":"VEC3"
		},
		{
			"bufferView":11,
			"componentType":5123,
			"count":5028,
			"type":"SCALAR"
		},
		{
			"bufferView":12,
			"componentType":5126,
			"count":7225,
			"max":[
				0.14600566029548645,
				0.023186825215816498,
				0.04463925212621689
			],
			"min":[
				-0.051356375217437744,
				0,
				0.01142803579568863
			],
			"type":"VEC3"
		},
		{
			"bufferView":13,
			"componentType":5126,
			"count":7225,
			"type":"VEC2"
		},
		{
			"bufferView":14,
			"componentType":5126,
			"count":7225,
			"type":"VEC3"
		},
		{
			"bufferView":15,
			"componentType":5123,
			"count":14520,
			"type":"SCALAR"
		}
	],
	"bufferViews":[
		{
			"buffer":0,
			"byteLength":27636,
			"byteOffset":0,
			"target":34962
		},
		{
			"buffer":0,
			"byteLength":18424,
			"byteOffset":27636,
			"target":34962
		},
		{
			"buffer":0,
			"byteLength":27636,
			"byteOffset":46060,
			"target":34962
		},
		{
			"buffer":0,
			"byteLength":8760,
			"byteOffset":73696,
			"target":34963
		},
		{
			"buffer":0,
			"byteLength":50244,
			"byteOffset":82456,
			"target":34962
		},
		{
			"buffer":0,
			"byteLength":33496,
			"byteOffset":132700,
			"target":34962
		},
		{
			"buffer":0,
			"byteLength":50244,
			"byteOffset":166196,
			"target":34962
		},
		{
			"buffer":0,
			"byteLength":16512,
			"byteOffset":216440,
			"target":34963
		},
		{
			"buffer":0,
			"byteLength":30636,
			"byteOffset":232952,
			"target":34962
		},
		{
			"buffer":0,
			"byteLength":20424,
			"byteOffset":263588,
			"target":34962
		},
		{
			"buffer":0,
			"byteLength":30636,
			"byteOffset":284012,
			"target":34962
		},
		{
			"buffer":0,
			"byteLength":10056,
			"byteOffset":314648,
			"target":34963
		},
		{
			"buffer":0,
			"byteLength":86700,
			"byteOffset":324704,
			"target":34962
		},
		{
			"buffer":0,
			"byteLength":57800,
			"byteOffset":411404,
			"target":34962
		},
		{
			"buffer":0,
			"byteLength":86700,
			"byteOffset":469204,
			"target":34962
		},
		{
			"buffer":0,
			"byteLength":29040,
			"byteOffset":555904,
			"target":34963
		}
	],
	"samplers":[
		{
			"magFilter":9729,
			"minFilter":9987
		}
	],
	"buffers":[
		{
			"byteLength":584944,
			"uri":"logo.bin"
		}
	]
}
